<?xml version="1.0" encoding="UTF-8"?><svg id="Layer_1" xmlns="http://www.w3.org/2000/svg" viewBox="0 0 217.59 141.38"><defs><style>.cls-1{fill:rgba(255,255,255,0.95);}.cls-1,.cls-2,.cls-3{stroke:#60a5fa;stroke-miterlimit:10;stroke-width:2px;}.cls-2{fill:#ffffff;}.cls-3{fill:#ffffff;}</style></defs><path class="cls-1" d="M115.48,119.1c3.32,2.22,5.44,4.85,7.6,4.88,21.17.31,42.35.19,63.83.19.38-2.3.7-4.27,1.14-6.94,7.58,3.62,14.91,7.12,23.46,11.2-8.3,3.99-15.51,7.45-23.2,11.14-.72-2.77-1.26-4.86-1.94-7.48-7.79,0-15.52,0-23.25,0-9.34,0-18.69.22-28.02-.07-7.01-.22-13.15.53-18.69,5.6-4.81,4.4-12.22,3.4-16.57-1.93-2.57-3.15-5.21-3.66-8.88-3.65-24.9.11-49.81.05-74.71.05-2.89,0-5.78,0-9.09,0v-7.85c1.95,0,4,0,6.05,0,25.88,0,51.76-.08,77.63.08,4.66.03,8.49-.39,9.85-5.95-13.23-3.75-26.73-7.61-40.25-11.41-16.52-4.64-33.08-9.18-49.57-13.92-2.78-.8-5.84-1.32-6.02-5.59C3.73,60.53,2.31,33.64,1.02,6.74c-.09-1.81.15-3.64.24-5.74h215.3c0,1.91.07,3.87-.01,5.83-1.12,26.93-2.35,53.85-3.29,80.78-.12,3.46-1.89,4.57-4.63,5.33-27.49,7.68-54.98,15.34-82.47,23.01-2.95.82-5.88,1.73-10.67,3.15ZM5.31,4.77c0,3.48-.15,6.38.02,9.27,1.42,23.79,2.97,47.56,4.27,71.35.19,3.46,2.17,4.09,4.9,4.86,28.94,8.16,57.81,16.55,86.83,24.46,4.55,1.24,10.04,1.55,14.54.35,29.23-7.81,58.29-16.19,87.43-24.29,3.55-.99,5.14-2.52,5.29-6.43.78-21.07,2-42.13,2.94-63.19.24-5.41.04-10.84.04-16.38H5.31Z"/><path class="cls-3" d="M140.61,20.2c11.23.49,22.16.1,32.79,1.62,18.63,2.65,22.99,16.6,21.78,30.42-1.61,18.34-13.41,27.83-32.56,27.86-7.18.01-14.35,0-22.01,0V20.2ZM154.73,68.91c9.53.75,17.98.26,22.9-8.27,4.26-7.39,4.46-15.17-.7-22.18-5.41-7.35-13.59-7.36-22.2-6.54v37Z"/><path class="cls-2" d="M64.49,56.19h-25.42v23.56h-14.1V20.94h13.94v22.93h25.22v-22.75h14.38v58.62h-14.02v-23.55Z"/><path class="cls-2" d="M130.27,68.88v10.9h-36.56V21.11h35.27v10.5h-21.39v12.89h19.95v10.79h-19.89v13.59h22.62Z"/></svg>